<?xml version="1.0" standalone="no"?><!DOCTYPE svg PUBLIC "-//W3C//DTD SVG 1.1//EN" "http://www.w3.org/Graphics/SVG/1.1/DTD/svg11.dtd"><svg t="1746597484401" class="icon" viewBox="0 0 1024 1024" version="1.1" xmlns="http://www.w3.org/2000/svg" p-id="2421" xmlns:xlink="http://www.w3.org/1999/xlink" width="200" height="200"><path d="M601.824561 520.982456H278.45614v71.859649h323.368421v-71.859649z" p-id="2422" fill="#ffffff"></path><path d="M889.263158 880.280702V107.789474c0-19.761404-16.168421-35.929825-35.929825-35.929825h-143.719298c-19.761404 0-35.929825 16.168421-35.929824 35.929825v269.473684h-53.894737v-53.894737c0-19.761404-16.168421-35.929825-35.929825-35.929825h-143.719298c-19.761404 0-35.929825 16.168421-35.929825 35.929825v53.894737H170.666667c-19.761404 0-35.929825 16.168421-35.929825 35.929824v467.08772H80.842105v71.859649h862.31579v-71.859649h-53.894737zM745.54386 143.719298h71.859649v233.54386h-71.859649V143.719298zM476.070175 359.298246h71.85965v17.964912h-71.85965v-17.964912z m-71.859649 520.982456h-53.894737v-161.684211h53.894737v161.684211z m71.859649 0v-161.684211h53.894737v161.684211h-53.894737z m125.754386 0V682.666667c0-19.761404-16.168421-35.929825-35.929824-35.929825H314.385965c-19.761404 0-35.929825 16.168421-35.929825 35.929825v197.614035h-71.859649V449.122807h610.807018v431.157895H601.824561z" p-id="2423" fill="#ffffff"></path></svg>